<svg width="590" height="200" viewBox="0 0 590 200" fill="none" xmlns="http://www.w3.org/2000/svg">
<path d="M10.12 171C7.66667 171 5.59667 170.157 3.91 168.47C2.22333 166.783 1.38 164.713 1.38 162.26V18.74C1.38 15.98 2.22333 13.8333 3.91 12.3C5.59667 10.7667 7.66667 9.99999 10.12 9.99999H32.43C34.8833 9.99999 36.9533 10.8433 38.64 12.53C40.3267 14.2167 41.17 16.2867 41.17 18.74V162.26C41.17 164.713 40.3267 166.783 38.64 168.47C36.9533 170.157 34.8833 171 32.43 171H10.12ZM23 28.17C23 26.6367 22.4633 25.87 21.39 25.87C20.1633 25.87 19.55 26.6367 19.55 28.17V152.83C19.55 154.363 20.1633 155.13 21.39 155.13C22.4633 155.13 23 154.363 23 152.83V28.17ZM63.8412 155.13C64.9145 155.13 65.4512 154.363 65.4512 152.83V96.25C65.4512 94.7167 64.9145 93.95 63.8412 93.95C62.6145 93.95 62.0012 94.7167 62.0012 96.25V152.83C62.0012 154.363 62.6145 155.13 63.8412 155.13ZM62.0012 77.16C62.0012 77.62 62.3078 77.85 62.9212 77.85H75.3412C77.6412 77.85 79.5578 78.6933 81.0912 80.38C82.7778 82.0667 83.6212 84.06 83.6212 86.36V162.26C83.6212 164.713 82.7778 166.783 81.0912 168.47C79.4045 170.157 77.3345 171 74.8812 171H45.2112C44.2912 171 43.8312 170.54 43.8312 169.62V11.38C43.8312 10.46 44.2912 9.99999 45.2112 9.99999H82.2412C83.1612 9.99999 83.6212 10.46 83.6212 11.38V73.02C83.6212 74.0933 83.1612 74.63 82.2412 74.63H66.8312C65.9112 74.63 65.4512 74.0933 65.4512 73.02V26.79C65.4512 26.1767 65.1445 25.87 64.5312 25.87H62.9212C62.3078 25.87 62.0012 26.1767 62.0012 26.79V77.16ZM95.247 171C92.7936 171 90.7236 170.157 89.037 168.47C87.3503 166.783 86.507 164.713 86.507 162.26V18.74C86.507 15.98 87.3503 13.8333 89.037 12.3C90.7236 10.7667 92.7936 9.99999 95.247 9.99999H117.557C120.01 9.99999 122.08 10.8433 123.767 12.53C125.454 14.2167 126.297 16.2867 126.297 18.74V162.26C126.297 164.713 125.454 166.783 123.767 168.47C122.08 170.157 120.01 171 117.557 171H95.247ZM108.127 28.17C108.127 26.6367 107.59 25.87 106.517 25.87C105.29 25.87 104.677 26.6367 104.677 28.17V152.83C104.677 154.363 105.29 155.13 106.517 155.13C107.59 155.13 108.127 154.363 108.127 152.83V28.17ZM173.458 82.45C174.378 82.45 174.838 81.76 174.838 80.38C174.991 78.8467 175.068 76.3167 175.068 72.79C175.221 69.11 175.374 64.97 175.528 60.37C175.681 55.77 175.834 50.94 175.988 45.88C176.141 40.82 176.294 35.99 176.448 31.39C176.601 26.79 176.678 22.7267 176.678 19.2C176.831 15.52 176.984 12.9133 177.138 11.38C177.138 10.46 177.598 9.99999 178.518 9.99999H199.678C200.598 9.99999 201.058 10.46 201.058 11.38L203.818 169.39C203.818 170.463 203.281 171 202.208 171H187.258C186.184 171 185.648 170.54 185.648 169.62V92.57C185.648 91.19 185.188 90.5 184.268 90.5C183.348 90.5 182.888 91.19 182.888 92.57C182.888 94.1033 182.811 96.8633 182.658 100.85C182.658 104.837 182.581 109.437 182.428 114.65C182.428 119.71 182.351 125.153 182.198 130.98C182.198 136.653 182.121 142.097 181.968 147.31C181.968 152.523 181.891 157.123 181.738 161.11C181.738 165.097 181.738 167.933 181.738 169.62C181.738 170.54 181.278 171 180.358 171H166.788C165.714 171 165.178 170.54 165.178 169.62C165.178 167.933 165.101 165.097 164.948 161.11C164.948 157.123 164.871 152.523 164.718 147.31C164.718 142.097 164.641 136.653 164.488 130.98C164.488 125.153 164.411 119.71 164.258 114.65C164.258 109.437 164.181 104.837 164.028 100.85C164.028 96.8633 164.028 94.1033 164.028 92.57C164.028 91.19 163.568 90.5 162.648 90.5C161.728 90.5 161.268 91.19 161.268 92.57V169.62C161.268 170.54 160.808 171 159.888 171H144.478C143.558 171 143.098 170.463 143.098 169.39L146.548 11.61C146.548 10.5367 147.084 9.99999 148.158 9.99999H168.398C169.471 9.99999 170.008 10.46 170.008 11.38C170.008 12.9133 170.084 15.52 170.238 19.2C170.391 22.7267 170.468 26.79 170.468 31.39C170.621 35.99 170.774 40.82 170.928 45.88C171.234 50.94 171.388 55.77 171.388 60.37C171.541 64.97 171.694 69.11 171.848 72.79C172.001 76.3167 172.078 78.8467 172.078 80.38C172.078 81.76 172.538 82.45 173.458 82.45ZM224.394 80.15C224.394 81.6833 225.007 82.45 226.234 82.45C227.307 82.45 227.844 81.6833 227.844 80.15V11.38C227.844 10.46 228.304 9.99999 229.224 9.99999H244.634C245.554 9.99999 246.014 10.46 246.014 11.38V169.62C246.014 170.54 245.554 171 244.634 171H229.224C228.304 171 227.844 170.54 227.844 169.62V100.85C227.844 99.3167 227.307 98.55 226.234 98.55C225.007 98.55 224.394 99.3167 224.394 100.85V169.62C224.394 170.54 223.934 171 223.014 171H207.604C206.684 171 206.224 170.54 206.224 169.62V11.38C206.224 10.46 206.684 9.99999 207.604 9.99999H223.014C223.934 9.99999 224.394 10.46 224.394 11.38V80.15ZM248.9 11.38C248.9 10.46 249.36 9.99999 250.28 9.99999H271.44C272.36 9.99999 272.82 10.46 272.82 11.38V24.49C272.82 25.41 272.36 25.87 271.44 25.87H267.99C267.376 25.87 267.07 26.1767 267.07 26.79V81.76C267.07 82.22 267.376 82.45 267.99 82.45H271.44C272.36 82.45 272.82 82.9867 272.82 84.06V96.94C272.82 98.0133 272.36 98.55 271.44 98.55H267.99C267.376 98.55 267.07 98.78 267.07 99.24V154.21C267.07 154.823 267.376 155.13 267.99 155.13H271.44C272.36 155.13 272.82 155.59 272.82 156.51V169.62C272.82 170.54 272.36 171 271.44 171H250.28C249.36 171 248.9 170.54 248.9 169.62V11.38Z" fill="#FCFCFC"/>
</svg>
