<svg width="590" height="200" viewBox="0 0 590 200" fill="none" xmlns="http://www.w3.org/2000/svg">
<path d="M18.17 9.99999C19.09 9.99999 19.55 10.46 19.55 11.38V80.15C19.55 81.6833 20.1633 82.45 21.39 82.45C22.4633 82.45 23 81.6833 23 80.15V11.38C23 10.46 23.46 9.99999 24.38 9.99999H39.79C40.71 9.99999 41.17 10.46 41.17 11.38V80.15C41.17 81.6833 41.0167 83.4467 40.71 85.44C40.4033 87.28 39.4833 88.7367 37.95 89.81C37.6433 89.9633 37.49 90.1933 37.49 90.5C37.49 90.8067 37.6433 91.0367 37.95 91.19C39.79 92.2633 40.7867 94.0267 40.94 96.48C41.0933 98.78 41.17 100.313 41.17 101.08V169.62C41.17 170.54 40.71 171 39.79 171H24.38C23.46 171 23 170.54 23 169.62V100.85C23 99.3167 22.4633 98.55 21.39 98.55C20.1633 98.55 19.55 99.3167 19.55 100.85V115.11V169.62C19.55 170.54 19.09 171 18.17 171H2.76C1.84 171 1.38 170.54 1.38 169.62V11.38C1.38 10.46 1.84 9.99999 2.76 9.99999H18.17ZM52.7958 171C50.3424 171 48.2724 170.157 46.5858 168.47C44.8991 166.783 44.0558 164.713 44.0558 162.26V18.74C44.0558 15.98 44.8991 13.8333 46.5858 12.3C48.2724 10.7667 50.3424 9.99999 52.7958 9.99999H75.1058C77.5591 9.99999 79.6291 10.8433 81.3158 12.53C83.0024 14.2167 83.8458 16.2867 83.8458 18.74V162.26C83.8458 164.713 83.0024 166.783 81.3158 168.47C79.6291 170.157 77.5591 171 75.1058 171H52.7958ZM65.6758 28.17C65.6758 26.6367 65.1391 25.87 64.0658 25.87C62.8391 25.87 62.2258 26.6367 62.2258 28.17V152.83C62.2258 154.363 62.8391 155.13 64.0658 155.13C65.1391 155.13 65.6758 154.363 65.6758 152.83V28.17ZM104.677 80.15C104.677 81.6833 105.29 82.45 106.517 82.45C107.59 82.45 108.127 81.6833 108.127 80.15V11.38C108.127 10.46 108.587 9.99999 109.507 9.99999H124.917C125.837 9.99999 126.297 10.46 126.297 11.38V169.62C126.297 170.54 125.837 171 124.917 171H109.507C108.587 171 108.127 170.54 108.127 169.62V100.85C108.127 99.3167 107.59 98.55 106.517 98.55C105.29 98.55 104.677 99.3167 104.677 100.85V169.62C104.677 170.54 104.217 171 103.297 171H87.887C86.967 171 86.507 170.54 86.507 169.62V11.38C86.507 10.46 86.967 9.99999 87.887 9.99999H103.297C104.217 9.99999 104.677 10.46 104.677 11.38V80.15ZM134.013 169.62V26.79C134.013 26.33 133.706 26.1 133.093 26.1H129.643C128.723 26.1 128.263 25.5633 128.263 24.49V11.61C128.263 10.5367 128.723 9.99999 129.643 9.99999H156.323C157.396 9.99999 157.933 10.5367 157.933 11.61V24.72C157.933 25.64 157.473 26.1 156.553 26.1H152.873C152.413 26.1 152.183 26.33 152.183 26.79V169.62C152.183 170.54 151.723 171 150.803 171H135.393C134.473 171 134.013 170.54 134.013 169.62ZM177.028 98.55C176.721 98.55 176.338 98.7033 175.878 99.01C175.571 99.1633 175.418 99.7767 175.418 100.85V169.39C175.418 170.463 174.881 171 173.808 171H158.628C157.708 171 157.248 170.617 157.248 169.85C157.248 167.857 157.325 164.33 157.478 159.27C157.631 154.057 157.785 147.923 157.938 140.87C158.091 133.663 158.245 125.767 158.398 117.18C158.705 108.44 158.935 99.6233 159.088 90.73C159.241 81.8367 159.395 73.0967 159.548 64.51C159.855 55.77 160.008 47.8733 160.008 40.82C160.161 33.6133 160.315 27.48 160.468 22.42C160.621 17.2067 160.698 13.68 160.698 11.84C160.851 10.6133 161.388 9.99999 162.308 9.99999H192.668C193.741 9.99999 194.278 10.46 194.278 11.38C194.278 13.22 194.278 16.7467 194.278 21.96C194.431 27.02 194.585 33.1533 194.738 40.36C194.891 47.5667 195.045 55.4633 195.198 64.05C195.351 72.6367 195.505 81.4533 195.658 90.5C195.811 99.3933 195.965 108.133 196.118 116.72C196.271 125.307 196.425 133.203 196.578 140.41C196.731 147.617 196.808 153.827 196.808 159.04C196.961 164.1 197.038 167.55 197.038 169.39C197.038 170.463 196.501 171 195.428 171H180.478C179.405 171 178.868 170.463 178.868 169.39V100.85C178.868 99.93 178.638 99.3167 178.178 99.01C177.718 98.7033 177.335 98.55 177.028 98.55ZM177.028 82.45C178.255 82.45 178.868 81.76 178.868 80.38V28.17C178.868 26.6367 178.255 25.87 177.028 25.87C175.955 25.87 175.418 26.6367 175.418 28.17V80.38C175.418 81.76 175.955 82.45 177.028 82.45ZM216.051 9.99999C216.971 9.99999 217.431 10.46 217.431 11.38V80.15C217.431 81.6833 218.044 82.45 219.271 82.45C220.344 82.45 220.881 81.6833 220.881 80.15V11.38C220.881 10.46 221.341 9.99999 222.261 9.99999H237.671C238.591 9.99999 239.051 10.46 239.051 11.38V80.15C239.051 81.6833 238.898 83.4467 238.591 85.44C238.284 87.28 237.364 88.7367 235.831 89.81C235.524 89.9633 235.371 90.1933 235.371 90.5C235.371 90.8067 235.524 91.0367 235.831 91.19C237.671 92.2633 238.668 94.0267 238.821 96.48C238.974 98.78 239.051 100.313 239.051 101.08V169.62C239.051 170.54 238.591 171 237.671 171H222.261C221.341 171 220.881 170.54 220.881 169.62V100.85C220.881 99.3167 220.344 98.55 219.271 98.55C218.044 98.55 217.431 99.3167 217.431 100.85V115.11V169.62C217.431 170.54 216.971 171 216.051 171H200.641C199.721 171 199.261 170.54 199.261 169.62V11.38C199.261 10.46 199.721 9.99999 200.641 9.99999H216.051ZM246.767 169.62V26.79C246.767 26.33 246.46 26.1 245.847 26.1H242.397C241.477 26.1 241.017 25.5633 241.017 24.49V11.61C241.017 10.5367 241.477 9.99999 242.397 9.99999H269.077C270.15 9.99999 270.687 10.5367 270.687 11.61V24.72C270.687 25.64 270.227 26.1 269.307 26.1H265.627C265.167 26.1 264.937 26.33 264.937 26.79V169.62C264.937 170.54 264.477 171 263.557 171H248.147C247.227 171 246.767 170.54 246.767 169.62ZM290.878 11.38V61.06C290.878 61.52 291.185 61.75 291.798 61.75H304.218C306.518 61.75 308.435 62.5933 309.968 64.28C311.655 65.9667 312.498 67.96 312.498 70.26V162.26C312.498 164.713 311.655 166.783 309.968 168.47C308.281 170.157 306.211 171 303.758 171H274.088C273.168 171 272.708 170.54 272.708 169.62V11.38C272.708 10.46 273.168 9.99999 274.088 9.99999H289.498C290.418 9.99999 290.878 10.46 290.878 11.38ZM292.718 155.13C293.791 155.13 294.328 154.363 294.328 152.83V80.15C294.328 79.3833 294.098 78.8467 293.638 78.54C293.331 78.08 293.025 77.85 292.718 77.85C291.491 77.85 290.878 78.6167 290.878 80.15V152.83C290.878 154.363 291.491 155.13 292.718 155.13ZM316.408 169.62V11.38C316.408 10.46 316.868 9.99999 317.788 9.99999H333.198C334.118 9.99999 334.578 10.46 334.578 11.38V169.62C334.578 170.54 334.118 171 333.198 171H317.788C316.868 171 316.408 170.54 316.408 169.62Z" fill="#FCFCFC"/>
</svg>
