<svg width="590" height="200" viewBox="0 0 590 200" fill="none" xmlns="http://www.w3.org/2000/svg">
<path d="M10.12 171C7.66667 171 5.59667 170.157 3.91 168.47C2.22333 166.783 1.38 164.713 1.38 162.26V18.74C1.38 15.98 2.22333 13.8333 3.91 12.3C5.59667 10.7667 7.66667 9.99999 10.12 9.99999H32.43C34.8833 9.99999 36.9533 10.8433 38.64 12.53C40.3267 14.2167 41.17 16.2867 41.17 18.74V162.26C41.17 164.713 40.3267 166.783 38.64 168.47C36.9533 170.157 34.8833 171 32.43 171H10.12ZM23 28.17C23 26.6367 22.4633 25.87 21.39 25.87C20.1633 25.87 19.55 26.6367 19.55 28.17V152.83C19.55 154.363 20.1633 155.13 21.39 155.13C22.4633 155.13 23 154.363 23 152.83V28.17ZM66.8312 9.99999H82.2412C83.1612 9.99999 83.6212 10.46 83.6212 11.38V169.62C83.6212 170.54 83.1612 171 82.2412 171H66.8312C65.9112 171 65.4512 170.54 65.4512 169.62V28.17C65.4512 26.6367 64.9145 25.87 63.8412 25.87C62.6145 25.87 62.0012 26.6367 62.0012 28.17V169.62C62.0012 170.54 61.5412 171 60.6212 171H45.2112C44.2912 171 43.8312 170.54 43.8312 169.62V11.38C43.8312 10.46 44.2912 9.99999 45.2112 9.99999H60.6212H66.8312ZM104.677 11.38V61.06C104.677 61.52 104.984 61.75 105.597 61.75H118.017C120.317 61.75 122.234 62.5933 123.767 64.28C125.454 65.9667 126.297 67.96 126.297 70.26V162.26C126.297 164.713 125.454 166.783 123.767 168.47C122.08 170.157 120.01 171 117.557 171H87.887C86.967 171 86.507 170.54 86.507 169.62V11.38C86.507 10.46 86.967 9.99999 87.887 9.99999H103.297C104.217 9.99999 104.677 10.46 104.677 11.38ZM106.517 155.13C107.59 155.13 108.127 154.363 108.127 152.83V80.15C108.127 79.3833 107.897 78.8467 107.437 78.54C107.13 78.08 106.824 77.85 106.517 77.85C105.29 77.85 104.677 78.6167 104.677 80.15V152.83C104.677 154.363 105.29 155.13 106.517 155.13ZM130.207 169.62V11.38C130.207 10.46 130.667 9.99999 131.587 9.99999H146.997C147.917 9.99999 148.377 10.46 148.377 11.38V169.62C148.377 170.54 147.917 171 146.997 171H131.587C130.667 171 130.207 170.54 130.207 169.62ZM157.148 169.62V26.79C157.148 26.33 156.841 26.1 156.228 26.1H152.778C151.858 26.1 151.398 25.5633 151.398 24.49V11.61C151.398 10.5367 151.858 9.99999 152.778 9.99999H179.458C180.531 9.99999 181.068 10.5367 181.068 11.61V24.72C181.068 25.64 180.608 26.1 179.688 26.1H176.008C175.548 26.1 175.318 26.33 175.318 26.79V169.62C175.318 170.54 174.858 171 173.938 171H158.527C157.608 171 157.148 170.54 157.148 169.62Z" fill="#FCFCFC"/>
</svg>
