<svg width="590" height="200" viewBox="0 0 590 200" fill="none" xmlns="http://www.w3.org/2000/svg">
<path d="M41.4 28.4V77.62C41.4 78.6933 40.94 79.23 40.02 79.23H24.61C23.69 79.23 23.23 78.6933 23.23 77.62V28.4H41.4ZM23.23 28.4C23.23 26.7133 22.6933 25.87 21.62 25.87C20.3933 25.87 19.78 26.7133 19.78 28.4V81.76C19.78 82.22 20.0867 82.45 20.7 82.45H40.02C40.94 82.45 41.4 82.9867 41.4 84.06V169.62C41.4 170.54 40.94 171 40.02 171H9.43C7.28333 171 5.44333 170.08 3.91 168.24C2.37667 166.247 1.61 164.253 1.61 162.26V18.74C1.61 16.44 2.37667 14.4467 3.91 12.76C5.59667 10.92 7.43667 9.99999 9.43 9.99999H33.58C35.7267 9.99999 37.5667 10.92 39.1 12.76C40.6333 14.4467 41.4 16.44 41.4 18.74V28.4H23.23ZM21.62 155.13C22.6933 155.13 23.23 154.287 23.23 152.6V100.85C23.23 99.3167 22.6933 98.55 21.62 98.55C20.3933 98.55 19.78 99.3167 19.78 100.85V152.6C19.78 154.287 20.3933 155.13 21.62 155.13ZM67.2804 171C66.3604 171 65.9004 170.54 65.9004 169.62V100.85C65.9004 99.3167 65.3637 98.55 64.2904 98.55C63.0637 98.55 62.4504 99.3167 62.4504 100.85V169.62C62.4504 170.54 61.9904 171 61.0704 171H45.6604C44.7404 171 44.2804 170.54 44.2804 169.62V11.38C44.2804 10.46 44.7404 9.99999 45.6604 9.99999H75.3304C77.7837 9.99999 79.8537 10.8433 81.5404 12.53C83.2271 14.2167 84.0704 16.2867 84.0704 18.74V80.38C84.0704 82.0667 83.8404 83.83 83.3804 85.67C83.0737 87.51 82.2304 88.89 80.8504 89.81C80.0837 90.27 80.1604 90.73 81.0804 91.19C82.7671 92.11 83.6871 93.5667 83.8404 95.56C83.9937 97.5533 84.0704 99.01 84.0704 99.93V169.62C84.0704 170.54 83.6104 171 82.6904 171H67.2804ZM64.2904 25.87C63.0637 25.87 62.4504 26.6367 62.4504 28.17V80.15C62.4504 81.6833 63.0637 82.45 64.2904 82.45C64.5971 82.45 64.9037 82.2967 65.2104 81.99C65.6704 81.6833 65.9004 81.07 65.9004 80.15V28.17C65.9004 26.6367 65.3637 25.87 64.2904 25.87ZM105.126 169.62C105.126 170.54 104.666 171 103.746 171H88.3362C87.4162 171 86.9562 170.54 86.9562 169.62V11.38C86.9562 10.46 87.4162 9.99999 88.3362 9.99999H118.006C120.46 9.99999 122.53 10.8433 124.216 12.53C125.903 14.2167 126.746 16.2867 126.746 18.74V90.04C126.746 92.34 125.903 94.3333 124.216 96.02C122.683 97.7067 120.766 98.55 118.466 98.55H106.046C105.433 98.55 105.126 98.78 105.126 99.24V169.62ZM106.966 25.87C105.74 25.87 105.126 26.6367 105.126 28.17V80.15C105.126 81.6833 105.74 82.45 106.966 82.45C107.273 82.45 107.58 82.2967 107.886 81.99C108.346 81.53 108.576 80.9167 108.576 80.15V28.17C108.576 26.6367 108.04 25.87 106.966 25.87ZM148.952 98.55C148.645 98.55 148.262 98.7033 147.802 99.01C147.495 99.1633 147.342 99.7767 147.342 100.85V169.39C147.342 170.463 146.805 171 145.732 171H130.552C129.632 171 129.172 170.617 129.172 169.85C129.172 167.857 129.249 164.33 129.402 159.27C129.555 154.057 129.709 147.923 129.862 140.87C130.015 133.663 130.169 125.767 130.322 117.18C130.629 108.44 130.859 99.6233 131.012 90.73C131.165 81.8367 131.319 73.0967 131.472 64.51C131.779 55.77 131.932 47.8733 131.932 40.82C132.085 33.6133 132.239 27.48 132.392 22.42C132.545 17.2067 132.622 13.68 132.622 11.84C132.775 10.6133 133.312 9.99999 134.232 9.99999H164.592C165.665 9.99999 166.202 10.46 166.202 11.38C166.202 13.22 166.202 16.7467 166.202 21.96C166.355 27.02 166.509 33.1533 166.662 40.36C166.815 47.5667 166.969 55.4633 167.122 64.05C167.275 72.6367 167.429 81.4533 167.582 90.5C167.735 99.3933 167.889 108.133 168.042 116.72C168.195 125.307 168.349 133.203 168.502 140.41C168.655 147.617 168.732 153.827 168.732 159.04C168.885 164.1 168.962 167.55 168.962 169.39C168.962 170.463 168.425 171 167.352 171H152.402C151.329 171 150.792 170.463 150.792 169.39V100.85C150.792 99.93 150.562 99.3167 150.102 99.01C149.642 98.7033 149.259 98.55 148.952 98.55ZM148.952 82.45C150.179 82.45 150.792 81.76 150.792 80.38V28.17C150.792 26.6367 150.179 25.87 148.952 25.87C147.879 25.87 147.342 26.6367 147.342 28.17V80.38C147.342 81.76 147.879 82.45 148.952 82.45ZM189.355 80.15C189.355 81.6833 189.968 82.45 191.195 82.45C192.268 82.45 192.805 81.6833 192.805 80.15V11.38C192.805 10.46 193.265 9.99999 194.185 9.99999H209.595C210.515 9.99999 210.975 10.46 210.975 11.38V169.62C210.975 170.54 210.515 171 209.595 171H194.185C193.265 171 192.805 170.54 192.805 169.62V100.85C192.805 99.3167 192.268 98.55 191.195 98.55C189.968 98.55 189.355 99.3167 189.355 100.85V169.62C189.355 170.54 188.895 171 187.975 171H172.565C171.645 171 171.185 170.54 171.185 169.62V11.38C171.185 10.46 171.645 9.99999 172.565 9.99999H187.975C188.895 9.99999 189.355 10.46 189.355 11.38V80.15ZM213.86 169.62V11.38C213.86 10.46 214.32 9.99999 215.24 9.99999H230.65C231.57 9.99999 232.03 10.46 232.03 11.38V169.62C232.03 170.54 231.57 171 230.65 171H215.24C214.32 171 213.86 170.54 213.86 169.62ZM253.374 152.6C253.374 154.287 253.987 155.13 255.214 155.13C256.287 155.13 256.824 154.287 256.824 152.6V83.83C256.824 82.91 257.284 82.45 258.204 82.45H273.614C274.534 82.45 274.994 82.91 274.994 83.83V162.26C274.994 164.56 274.227 166.63 272.694 168.47C271.16 170.157 269.32 171 267.174 171H243.024C241.184 171 239.42 170.157 237.734 168.47C236.047 166.783 235.204 164.713 235.204 162.26V18.74C235.204 16.44 235.97 14.4467 237.504 12.76C239.19 10.92 241.03 9.99999 243.024 9.99999H267.174C269.32 9.99999 271.16 10.92 272.694 12.76C274.227 14.6 274.994 16.8233 274.994 19.43V77.62C274.994 78.6933 274.534 79.23 273.614 79.23H258.204C257.284 79.23 256.824 78.6933 256.824 77.62V28.4C256.824 26.7133 256.287 25.87 255.214 25.87C253.987 25.87 253.374 26.7133 253.374 28.4V152.6Z" fill="#F9A7B1"/>
</svg>
