<svg width="590" height="200" viewBox="0 0 590 200" fill="none" xmlns="http://www.w3.org/2000/svg">
<path d="M31.28 82.45C32.2 82.45 32.66 81.76 32.66 80.38C32.8133 78.8467 32.89 76.3167 32.89 72.79C33.0433 69.11 33.1967 64.97 33.35 60.37C33.5033 55.77 33.6567 50.94 33.81 45.88C33.9633 40.82 34.1167 35.99 34.27 31.39C34.4233 26.79 34.5 22.7267 34.5 19.2C34.6533 15.52 34.8067 12.9133 34.96 11.38C34.96 10.46 35.42 9.99999 36.34 9.99999H57.5C58.42 9.99999 58.88 10.46 58.88 11.38L61.64 169.39C61.64 170.463 61.1033 171 60.03 171H45.08C44.0067 171 43.47 170.54 43.47 169.62V92.57C43.47 91.19 43.01 90.5 42.09 90.5C41.17 90.5 40.71 91.19 40.71 92.57C40.71 94.1033 40.6333 96.8633 40.48 100.85C40.48 104.837 40.4033 109.437 40.25 114.65C40.25 119.71 40.1733 125.153 40.02 130.98C40.02 136.653 39.9433 142.097 39.79 147.31C39.79 152.523 39.7133 157.123 39.56 161.11C39.56 165.097 39.56 167.933 39.56 169.62C39.56 170.54 39.1 171 38.18 171H24.61C23.5367 171 23 170.54 23 169.62C23 167.933 22.9233 165.097 22.77 161.11C22.77 157.123 22.6933 152.523 22.54 147.31C22.54 142.097 22.4633 136.653 22.31 130.98C22.31 125.153 22.2333 119.71 22.08 114.65C22.08 109.437 22.0033 104.837 21.85 100.85C21.85 96.8633 21.85 94.1033 21.85 92.57C21.85 91.19 21.39 90.5 20.47 90.5C19.55 90.5 19.09 91.19 19.09 92.57V169.62C19.09 170.54 18.63 171 17.71 171H2.3C1.38 171 0.92 170.463 0.92 169.39L4.37 11.61C4.37 10.5367 4.90667 9.99999 5.98 9.99999H26.22C27.2933 9.99999 27.83 10.46 27.83 11.38C27.83 12.9133 27.9067 15.52 28.06 19.2C28.2133 22.7267 28.29 26.79 28.29 31.39C28.4433 35.99 28.5967 40.82 28.75 45.88C29.0567 50.94 29.21 55.77 29.21 60.37C29.3633 64.97 29.5167 69.11 29.67 72.79C29.8233 76.3167 29.9 78.8467 29.9 80.38C29.9 81.76 30.36 82.45 31.28 82.45ZM72.786 171C70.3327 171 68.2627 170.157 66.576 168.47C64.8893 166.783 64.046 164.713 64.046 162.26V18.74C64.046 15.98 64.8893 13.8333 66.576 12.3C68.2627 10.7667 70.3327 9.99999 72.786 9.99999H95.096C97.5493 9.99999 99.6194 10.8433 101.306 12.53C102.993 14.2167 103.836 16.2867 103.836 18.74V162.26C103.836 164.713 102.993 166.783 101.306 168.47C99.6194 170.157 97.5493 171 95.096 171H72.786ZM85.666 28.17C85.666 26.6367 85.1293 25.87 84.056 25.87C82.8293 25.87 82.216 26.6367 82.216 28.17V152.83C82.216 154.363 82.8293 155.13 84.056 155.13C85.1293 155.13 85.666 154.363 85.666 152.83V28.17ZM111.327 169.62V26.79C111.327 26.33 111.021 26.1 110.407 26.1H106.957C106.037 26.1 105.577 25.5633 105.577 24.49V11.61C105.577 10.5367 106.037 9.99999 106.957 9.99999H133.637C134.711 9.99999 135.247 10.5367 135.247 11.61V24.72C135.247 25.64 134.787 26.1 133.867 26.1H130.187C129.727 26.1 129.497 26.33 129.497 26.79V169.62C129.497 170.54 129.037 171 128.117 171H112.707C111.787 171 111.327 170.54 111.327 169.62ZM137.269 169.62V11.38C137.269 10.46 137.729 9.99999 138.649 9.99999H154.059C154.979 9.99999 155.439 10.46 155.439 11.38V169.62C155.439 170.54 154.979 171 154.059 171H138.649C137.729 171 137.269 170.54 137.269 169.62ZM167.122 171C164.669 171 162.599 170.157 160.912 168.47C159.225 166.783 158.382 164.713 158.382 162.26V18.74C158.382 15.98 159.225 13.8333 160.912 12.3C162.599 10.7667 164.669 9.99999 167.122 9.99999H189.432C191.885 9.99999 193.955 10.8433 195.642 12.53C197.329 14.2167 198.172 16.2867 198.172 18.74V162.26C198.172 164.713 197.329 166.783 195.642 168.47C193.955 170.157 191.885 171 189.432 171H167.122ZM180.002 28.17C180.002 26.6367 179.465 25.87 178.392 25.87C177.165 25.87 176.552 26.6367 176.552 28.17V152.83C176.552 154.363 177.165 155.13 178.392 155.13C179.465 155.13 180.002 154.363 180.002 152.83V28.17ZM217.623 9.99999C218.696 9.99999 219.233 10.46 219.233 11.38C219.386 12.9133 219.616 15.5967 219.923 19.43C220.383 23.11 220.843 27.4033 221.303 32.31C221.763 37.2167 222.223 42.3533 222.683 47.72C223.296 53.0867 223.833 58.2233 224.293 63.13C224.753 67.8833 225.136 72.1 225.443 75.78C225.75 79.3067 225.98 81.76 226.133 83.14C226.286 83.4467 226.44 83.9067 226.593 84.52C226.746 85.1333 227.053 85.44 227.513 85.44C227.973 85.2867 228.203 84.98 228.203 84.52C228.356 83.9067 228.433 83.4467 228.433 83.14C228.433 81.4533 228.356 78.77 228.203 75.09C228.203 71.2567 228.126 66.9633 227.973 62.21C227.82 57.4567 227.59 52.4733 227.283 47.26C227.13 42.0467 226.976 37.0633 226.823 32.31C226.67 27.5567 226.516 23.4167 226.363 19.89C226.21 16.21 226.133 13.5267 226.133 11.84C225.98 10.6133 226.44 9.99999 227.513 9.99999H242.693C243.766 9.99999 244.303 10.46 244.303 11.38V169.62C244.303 170.54 243.766 171 242.693 171H227.283C226.516 171 225.98 170.54 225.673 169.62C225.52 168.087 225.29 165.48 224.983 161.8C224.676 157.967 224.293 153.597 223.833 148.69C223.373 143.783 222.913 138.647 222.453 133.28C221.993 127.913 221.533 122.853 221.073 118.1C220.766 113.347 220.46 109.207 220.153 105.68C219.846 102 219.616 99.5467 219.463 98.32C219.31 96.94 218.926 96.25 218.313 96.25C217.7 96.25 217.393 96.94 217.393 98.32C217.393 99.7 217.393 102.23 217.393 105.91C217.546 109.437 217.623 113.577 217.623 118.33C217.776 123.083 217.93 128.143 218.083 133.51C218.236 138.723 218.39 143.783 218.543 148.69C218.696 153.443 218.773 157.737 218.773 161.57C218.926 165.25 219.003 167.857 219.003 169.39C219.003 170.463 218.543 171 217.623 171H202.213C201.293 171 200.833 170.54 200.833 169.62V11.38C200.833 10.46 201.293 9.99999 202.213 9.99999H217.623Z" fill="#F9A7B1"/>
</svg>
