<svg width="1240" height="600" viewBox="0 0 1240 600" fill="none" xmlns="http://www.w3.org/2000/svg">
<path d="M331.159 361.714C331.159 363.39 331.772 364.229 332.998 364.229C334.071 364.229 334.607 363.39 334.607 361.714V293.371C334.607 292.457 335.067 292 335.987 292H351.388C352.307 292 352.767 292.457 352.767 293.371V371.314C352.767 373.6 352.001 375.657 350.468 377.486C348.936 379.162 347.097 380 344.951 380H320.815C318.977 380 317.214 379.162 315.529 377.486C313.843 375.81 313 373.752 313 371.314V228.686C313 226.4 313.766 224.419 315.299 222.743C316.984 220.914 318.823 220 320.815 220H344.951C347.097 220 348.936 220.914 350.468 222.743C352.001 224.571 352.767 226.781 352.767 229.371V287.2C352.767 288.267 352.307 288.8 351.388 288.8H335.987C335.067 288.8 334.607 288.267 334.607 287.2V238.286C334.607 236.61 334.071 235.771 332.998 235.771C331.772 235.771 331.159 236.61 331.159 238.286V361.714Z" fill="#FCFCFC"/>
<path d="M385.528 292C386.448 292 386.907 291.314 386.907 289.943C387.061 288.419 387.137 285.905 387.137 282.4C387.29 278.743 387.444 274.629 387.597 270.057C387.75 265.486 387.903 260.686 388.057 255.657C388.21 250.629 388.363 245.829 388.516 241.257C388.67 236.686 388.746 232.648 388.746 229.143C388.9 225.486 389.053 222.895 389.206 221.371C389.206 220.457 389.666 220 390.585 220H411.733C412.652 220 413.112 220.457 413.112 221.371L415.87 378.4C415.87 379.467 415.334 380 414.261 380H399.32C398.247 380 397.711 379.543 397.711 378.629V302.057C397.711 300.686 397.251 300 396.332 300C395.412 300 394.953 300.686 394.953 302.057C394.953 303.581 394.876 306.324 394.723 310.286C394.723 314.248 394.646 318.819 394.493 324C394.493 329.029 394.416 334.438 394.263 340.229C394.263 345.867 394.186 351.276 394.033 356.457C394.033 361.638 393.957 366.21 393.803 370.171C393.803 374.133 393.803 376.952 393.803 378.629C393.803 379.543 393.344 380 392.424 380H378.862C377.789 380 377.253 379.543 377.253 378.629C377.253 376.952 377.176 374.133 377.023 370.171C377.023 366.21 376.946 361.638 376.793 356.457C376.793 351.276 376.717 345.867 376.563 340.229C376.563 334.438 376.487 329.029 376.334 324C376.334 318.819 376.257 314.248 376.104 310.286C376.104 306.324 376.104 303.581 376.104 302.057C376.104 300.686 375.644 300 374.724 300C373.805 300 373.345 300.686 373.345 302.057V378.629C373.345 379.543 372.886 380 371.966 380H356.565C355.646 380 355.186 379.467 355.186 378.4L358.634 221.6C358.634 220.533 359.17 220 360.243 220H380.471C381.544 220 382.08 220.457 382.08 221.371C382.08 222.895 382.157 225.486 382.31 229.143C382.463 232.648 382.54 236.686 382.54 241.257C382.693 245.829 382.846 250.629 383 255.657C383.306 260.686 383.459 265.486 383.459 270.057C383.613 274.629 383.766 278.743 383.919 282.4C384.072 285.905 384.149 288.419 384.149 289.943C384.149 291.314 384.609 292 385.528 292Z" fill="#FCFCFC"/>
<path d="M427.01 380C424.558 380 422.489 379.162 420.804 377.486C419.118 375.81 418.275 373.752 418.275 371.314V228.686C418.275 225.943 419.118 223.81 420.804 222.286C422.489 220.762 424.558 220 427.01 220H449.307C451.759 220 453.828 220.838 455.513 222.514C457.199 224.19 458.042 226.248 458.042 228.686V371.314C458.042 373.752 457.199 375.81 455.513 377.486C453.828 379.162 451.759 380 449.307 380H427.01ZM439.883 238.057C439.883 236.533 439.346 235.771 438.273 235.771C437.047 235.771 436.435 236.533 436.435 238.057V361.943C436.435 363.467 437.047 364.229 438.273 364.229C439.346 364.229 439.883 363.467 439.883 361.943V238.057Z" fill="#FCFCFC"/>
<path d="M465.529 378.629V236.686C465.529 236.229 465.222 236 464.609 236H461.161C460.242 236 459.782 235.467 459.782 234.4V221.6C459.782 220.533 460.242 220 461.161 220H487.826C488.898 220 489.435 220.533 489.435 221.6V234.629C489.435 235.543 488.975 236 488.056 236H484.378C483.918 236 483.688 236.229 483.688 236.686V378.629C483.688 379.543 483.228 380 482.309 380H466.908C465.988 380 465.529 379.543 465.529 378.629Z" fill="#FCFCFC"/>
<path d="M509.615 378.629C509.615 379.543 509.155 380 508.235 380H492.834C491.915 380 491.455 379.543 491.455 378.629V221.371C491.455 220.457 491.915 220 492.834 220H522.487C524.939 220 527.008 220.838 528.693 222.514C530.379 224.19 531.222 226.248 531.222 228.686V299.543C531.222 301.829 530.379 303.81 528.693 305.486C527.161 307.162 525.245 308 522.947 308H510.534C509.921 308 509.615 308.229 509.615 308.686V378.629ZM511.453 235.771C510.228 235.771 509.615 236.533 509.615 238.057V289.714C509.615 291.238 510.228 292 511.453 292C511.76 292 512.066 291.848 512.373 291.543C512.833 291.086 513.063 290.476 513.063 289.714V238.057C513.063 236.533 512.526 235.771 511.453 235.771Z" fill="#FCFCFC"/>
<path d="M534.106 221.371C534.106 220.457 534.566 220 535.485 220H556.633C557.552 220 558.012 220.457 558.012 221.371V234.4C558.012 235.314 557.552 235.771 556.633 235.771H553.185C552.572 235.771 552.266 236.076 552.266 236.686V291.314C552.266 291.771 552.572 292 553.185 292H556.633C557.552 292 558.012 292.533 558.012 293.6V306.4C558.012 307.467 557.552 308 556.633 308H553.185C552.572 308 552.266 308.229 552.266 308.686V363.314C552.266 363.924 552.572 364.229 553.185 364.229H556.633C557.552 364.229 558.012 364.686 558.012 365.6V378.629C558.012 379.543 557.552 380 556.633 380H535.485C534.566 380 534.106 379.543 534.106 378.629V221.371Z" fill="#FCFCFC"/>
<path d="M565.422 378.629V236.686C565.422 236.229 565.115 236 564.502 236H561.054C560.135 236 559.675 235.467 559.675 234.4V221.6C559.675 220.533 560.135 220 561.054 220H587.719C588.791 220 589.328 220.533 589.328 221.6V234.629C589.328 235.543 588.868 236 587.949 236H584.271C583.811 236 583.581 236.229 583.581 236.686V378.629C583.581 379.543 583.121 380 582.202 380H566.801C565.881 380 565.422 379.543 565.422 378.629Z" fill="#FCFCFC"/>
<path d="M609.508 221.371V270.743C609.508 271.2 609.814 271.429 610.427 271.429H622.84C625.138 271.429 627.054 272.267 628.586 273.943C630.272 275.619 631.115 277.6 631.115 279.886V371.314C631.115 373.752 630.272 375.81 628.586 377.486C626.901 379.162 624.832 380 622.38 380H592.727C591.808 380 591.348 379.543 591.348 378.629V221.371C591.348 220.457 591.808 220 592.727 220H608.128C609.048 220 609.508 220.457 609.508 221.371ZM611.347 364.229C612.419 364.229 612.956 363.467 612.956 361.943V289.714C612.956 288.952 612.726 288.419 612.266 288.114C611.959 287.657 611.653 287.429 611.347 287.429C610.121 287.429 609.508 288.19 609.508 289.714V361.943C609.508 363.467 610.121 364.229 611.347 364.229Z" fill="#FCFCFC"/>
<path d="M670.198 361.943V221.371C670.198 220.457 670.657 220 671.577 220H686.978C687.897 220 688.357 220.457 688.357 221.371V361.943C688.357 363.467 688.97 364.229 690.196 364.229C691.269 364.229 691.805 363.467 691.805 361.943V221.371C691.805 220.457 692.265 220 693.184 220H708.585C709.505 220 709.964 220.457 709.964 221.371V378.629C709.964 379.543 709.505 380 708.585 380H649.969C649.05 380 648.59 379.543 648.59 378.629V221.371C648.59 220.457 649.05 220 649.969 220H665.37C666.29 220 666.75 220.457 666.75 221.371V361.943C666.75 363.467 667.363 364.229 668.589 364.229C669.661 364.229 670.198 363.467 670.198 361.943Z" fill="#FCFCFC"/>
<path d="M721.526 380C719.074 380 717.005 379.162 715.32 377.486C713.634 375.81 712.791 373.752 712.791 371.314V228.686C712.791 225.943 713.634 223.81 715.32 222.286C717.005 220.762 719.074 220 721.526 220H743.823C746.275 220 748.344 220.838 750.029 222.514C751.715 224.19 752.558 226.248 752.558 228.686V371.314C752.558 373.752 751.715 375.81 750.029 377.486C748.344 379.162 746.275 380 743.823 380H721.526ZM734.399 238.057C734.399 236.533 733.862 235.771 732.789 235.771C731.564 235.771 730.951 236.533 730.951 238.057V361.943C730.951 363.467 731.564 364.229 732.789 364.229C733.862 364.229 734.399 363.467 734.399 361.943V238.057Z" fill="#FCFCFC"/>
<path d="M776.825 308.686C776.825 308.229 776.595 308 776.135 308H763.952C761.501 308 759.432 307.162 757.746 305.486C756.06 303.81 755.218 301.752 755.218 299.314V221.371C755.218 220.457 755.677 220 756.597 220H771.998C772.917 220 773.377 220.457 773.377 221.371V289.257C773.377 290.476 773.607 291.238 774.067 291.543C774.526 291.848 774.909 292 775.216 292C775.369 292 775.676 291.848 776.135 291.543C776.595 291.238 776.825 290.476 776.825 289.257V221.371C776.825 220.457 777.285 220 778.204 220H793.605C794.525 220 794.984 220.457 794.984 221.371V371.314C794.984 373.6 794.218 375.581 792.686 377.257C791.153 378.781 789.314 379.695 787.169 380H763.033C760.888 379.695 759.049 378.781 757.516 377.257C755.984 375.581 755.218 373.6 755.218 371.314V312.8C755.218 311.733 755.677 311.2 756.597 311.2H771.998C772.917 311.2 773.377 311.733 773.377 312.8V361.714C773.377 363.39 773.99 364.229 775.216 364.229C776.289 364.229 776.825 363.39 776.825 361.714V308.686Z" fill="#FCFCFC"/>
<path d="M816.028 378.629C816.028 379.543 815.568 380 814.649 380H799.248C798.328 380 797.869 379.543 797.869 378.629V221.371C797.869 220.457 798.328 220 799.248 220H828.9C831.352 220 833.421 220.838 835.107 222.514C836.793 224.19 837.635 226.248 837.635 228.686V299.543C837.635 301.829 836.793 303.81 835.107 305.486C833.574 307.162 831.659 308 829.36 308H816.947C816.334 308 816.028 308.229 816.028 308.686V378.629ZM817.867 235.771C816.641 235.771 816.028 236.533 816.028 238.057V289.714C816.028 291.238 816.641 292 817.867 292C818.173 292 818.48 291.848 818.786 291.543C819.246 291.086 819.476 290.476 819.476 289.714V238.057C819.476 236.533 818.94 235.771 817.867 235.771Z" fill="#FCFCFC"/>
<path d="M867.184 220H882.585C883.504 220 883.964 220.457 883.964 221.371V378.629C883.964 379.543 883.504 380 882.585 380H867.184C866.264 380 865.805 379.467 865.805 378.4C865.805 376.876 865.805 374.286 865.805 370.629C865.958 366.819 866.111 362.552 866.264 357.829C866.418 352.952 866.571 347.924 866.724 342.743C866.877 337.41 866.954 332.381 866.954 327.657C867.107 322.933 867.184 318.819 867.184 315.314C867.337 311.657 867.414 309.143 867.414 307.771C867.414 306.4 867.107 305.714 866.494 305.714C865.881 305.714 865.498 306.4 865.345 307.771C865.192 308.99 864.962 311.429 864.655 315.086C864.349 318.59 863.966 322.705 863.506 327.429C863.2 332.152 862.816 337.181 862.357 342.514C861.897 347.848 861.437 352.952 860.978 357.829C860.518 362.705 860.135 367.048 859.828 370.857C859.522 374.514 859.292 377.105 859.139 378.629C858.832 379.543 858.296 380 857.53 380H842.128C841.056 380 840.519 379.543 840.519 378.629V221.371C840.519 220.457 841.056 220 842.128 220H857.3C858.372 220 858.832 220.61 858.679 221.829C858.679 223.505 858.602 226.171 858.449 229.829C858.296 233.333 858.142 237.448 857.989 242.171C857.836 246.895 857.606 251.848 857.3 257.029C857.146 262.21 856.993 267.162 856.84 271.886C856.687 276.61 856.533 280.876 856.38 284.686C856.38 288.343 856.38 291.01 856.38 292.686C856.38 292.99 856.38 293.448 856.38 294.057C856.533 294.514 856.84 294.819 857.3 294.971C857.759 294.971 858.066 294.667 858.219 294.057C858.372 293.448 858.526 292.99 858.679 292.686C858.832 291.314 859.062 288.876 859.368 285.371C859.675 281.714 860.058 277.524 860.518 272.8C860.978 267.924 861.437 262.819 861.897 257.486C862.51 252.152 863.046 247.048 863.506 242.171C863.966 237.295 864.349 233.029 864.655 229.371C865.115 225.562 865.422 222.895 865.575 221.371C865.575 220.457 866.111 220 867.184 220Z" fill="#FCFCFC"/>
<path d="M894.118 220H921.012C922.085 220 922.621 220.457 922.621 221.371C922.621 223.2 922.698 226.705 922.851 231.886C923.158 236.914 923.387 243.01 923.541 250.171C923.847 257.181 924.154 264.952 924.46 273.486C924.767 282.019 924.996 290.705 925.15 299.543C925.456 308.381 925.763 317.143 926.069 325.829C926.376 334.362 926.606 342.21 926.759 349.371C927.065 356.381 927.295 362.476 927.448 367.657C927.755 372.686 927.908 376.19 927.908 378.171C928.215 379.39 927.755 380 926.529 380H911.358C910.285 380 909.749 379.543 909.749 378.629C909.749 376.648 909.672 372.838 909.519 367.2C909.519 361.562 909.442 355.086 909.289 347.771C909.289 340.457 909.212 332.762 909.059 324.686C909.059 316.457 908.982 308.762 908.829 301.6C908.676 294.286 908.523 287.962 908.369 282.629C908.369 277.143 908.369 273.486 908.369 271.657C908.369 271.352 908.293 270.971 908.14 270.514C908.14 270.057 907.833 269.829 907.22 269.829C906.914 269.829 906.684 270.057 906.531 270.514C906.377 270.971 906.301 271.352 906.301 271.657C906.301 273.486 906.224 277.067 906.071 282.4C906.071 287.733 905.994 294.057 905.841 301.371C905.688 308.533 905.534 316.229 905.381 324.457C905.381 332.686 905.305 340.457 905.151 347.771C904.998 355.086 904.845 361.562 904.692 367.2C904.692 372.838 904.692 376.648 904.692 378.629C904.692 379.543 904.232 380 903.312 380H887.911C886.992 380 886.532 379.467 886.532 378.4C886.685 376.419 886.839 372.914 886.992 367.886C887.145 362.705 887.375 356.61 887.681 349.6C887.988 342.438 888.294 334.59 888.601 326.057C888.907 317.371 889.214 308.61 889.52 299.771C889.98 290.933 890.363 282.248 890.67 273.714C890.976 265.029 891.206 257.181 891.359 250.171C891.666 243.01 891.896 236.914 892.049 231.886C892.355 226.705 892.509 223.2 892.509 221.371C892.509 220.457 893.045 220 894.118 220Z" fill="#FCFCFC"/>
</svg>
