<svg width="590" height="200" viewBox="0 0 590 200" fill="none" xmlns="http://www.w3.org/2000/svg">
<path d="M19.55 80.15C19.55 81.6833 20.1633 82.45 21.39 82.45C22.4633 82.45 23 81.6833 23 80.15V11.38C23 10.46 23.46 9.99999 24.38 9.99999H39.79C40.71 9.99999 41.17 10.46 41.17 11.38V169.62C41.17 170.54 40.71 171 39.79 171H24.38C23.46 171 23 170.54 23 169.62V100.85C23 99.3167 22.4633 98.55 21.39 98.55C20.1633 98.55 19.55 99.3167 19.55 100.85V169.62C19.55 170.54 19.09 171 18.17 171H2.76C1.84 171 1.38 170.54 1.38 169.62V11.38C1.38 10.46 1.84 9.99999 2.76 9.99999H18.17C19.09 9.99999 19.55 10.46 19.55 11.38V80.15ZM63.3758 98.55C63.0691 98.55 62.6858 98.7033 62.2258 99.01C61.9191 99.1633 61.7658 99.7767 61.7658 100.85V169.39C61.7658 170.463 61.2291 171 60.1558 171H44.9758C44.0558 171 43.5958 170.617 43.5958 169.85C43.5958 167.857 43.6724 164.33 43.8258 159.27C43.9791 154.057 44.1324 147.923 44.2858 140.87C44.4391 133.663 44.5924 125.767 44.7458 117.18C45.0524 108.44 45.2824 99.6233 45.4358 90.73C45.5891 81.8367 45.7424 73.0967 45.8958 64.51C46.2024 55.77 46.3558 47.8733 46.3558 40.82C46.5091 33.6133 46.6624 27.48 46.8158 22.42C46.9691 17.2067 47.0458 13.68 47.0458 11.84C47.1991 10.6133 47.7358 9.99999 48.6558 9.99999H79.0158C80.0891 9.99999 80.6258 10.46 80.6258 11.38C80.6258 13.22 80.6258 16.7467 80.6258 21.96C80.7791 27.02 80.9325 33.1533 81.0858 40.36C81.2391 47.5667 81.3925 55.4633 81.5458 64.05C81.6991 72.6367 81.8524 81.4533 82.0058 90.5C82.1591 99.3933 82.3124 108.133 82.4658 116.72C82.6191 125.307 82.7725 133.203 82.9258 140.41C83.0791 147.617 83.1558 153.827 83.1558 159.04C83.3091 164.1 83.3858 167.55 83.3858 169.39C83.3858 170.463 82.8491 171 81.7758 171H66.8258C65.7524 171 65.2158 170.463 65.2158 169.39V100.85C65.2158 99.93 64.9858 99.3167 64.5258 99.01C64.0658 98.7033 63.6824 98.55 63.3758 98.55ZM63.3758 82.45C64.6024 82.45 65.2158 81.76 65.2158 80.38V28.17C65.2158 26.6367 64.6024 25.87 63.3758 25.87C62.3024 25.87 61.7658 26.6367 61.7658 28.17V80.38C61.7658 81.76 62.3024 82.45 63.3758 82.45ZM87.4485 171C86.2218 171 85.6085 170.463 85.6085 169.39V11.84C85.6085 11.2267 85.7618 10.7667 86.0685 10.46C86.3752 10.1533 86.8352 9.99999 87.4485 9.99999H116.659C119.112 9.99999 121.182 10.8433 122.869 12.53C124.555 14.2167 125.399 16.2867 125.399 18.74V79.46C125.399 82.68 125.015 85.0567 124.249 86.59C123.635 88.1233 122.945 89.1967 122.179 89.81C121.565 90.4233 121.565 90.8833 122.179 91.19C124.019 92.2633 125.015 93.95 125.169 96.25C125.322 98.55 125.399 100.16 125.399 101.08V162.26C125.399 164.713 124.555 166.783 122.869 168.47C121.182 170.157 119.112 171 116.659 171H87.4485ZM105.619 98.55C104.392 98.55 103.779 99.3167 103.779 100.85V152.6C103.779 154.287 104.392 155.13 105.619 155.13C106.692 155.13 107.229 154.287 107.229 152.6V100.85C107.229 99.3167 106.692 98.55 105.619 98.55ZM105.619 25.87C104.392 25.87 103.779 26.6367 103.779 28.17V80.15C103.779 81.6833 104.392 82.45 105.619 82.45C106.692 82.45 107.229 81.6833 107.229 80.15V28.17C107.229 26.6367 106.692 25.87 105.619 25.87ZM146.454 11.38V61.06C146.454 61.52 146.761 61.75 147.374 61.75H159.794C162.094 61.75 164.011 62.5933 165.544 64.28C167.231 65.9667 168.074 67.96 168.074 70.26V162.26C168.074 164.713 167.231 166.783 165.544 168.47C163.858 170.157 161.788 171 159.334 171H129.664C128.744 171 128.284 170.54 128.284 169.62V11.38C128.284 10.46 128.744 9.99999 129.664 9.99999H145.074C145.994 9.99999 146.454 10.46 146.454 11.38ZM148.294 155.13C149.368 155.13 149.904 154.363 149.904 152.83V80.15C149.904 79.3833 149.674 78.8467 149.214 78.54C148.908 78.08 148.601 77.85 148.294 77.85C147.068 77.85 146.454 78.6167 146.454 80.15V152.83C146.454 154.363 147.068 155.13 148.294 155.13ZM171.984 169.62V11.38C171.984 10.46 172.444 9.99999 173.364 9.99999H188.774C189.694 9.99999 190.154 10.46 190.154 11.38V169.62C190.154 170.54 189.694 171 188.774 171H173.364C172.444 171 171.984 170.54 171.984 169.62ZM210.885 9.99999C211.805 9.99999 212.265 10.46 212.265 11.38V80.15C212.265 81.6833 212.878 82.45 214.105 82.45C215.178 82.45 215.715 81.6833 215.715 80.15V11.38C215.715 10.46 216.175 9.99999 217.095 9.99999H232.505C233.425 9.99999 233.885 10.46 233.885 11.38V80.15C233.885 81.6833 233.732 83.4467 233.425 85.44C233.118 87.28 232.198 88.7367 230.665 89.81C230.358 89.9633 230.205 90.1933 230.205 90.5C230.205 90.8067 230.358 91.0367 230.665 91.19C232.505 92.2633 233.502 94.0267 233.655 96.48C233.808 98.78 233.885 100.313 233.885 101.08V169.62C233.885 170.54 233.425 171 232.505 171H217.095C216.175 171 215.715 170.54 215.715 169.62V100.85C215.715 99.3167 215.178 98.55 214.105 98.55C212.878 98.55 212.265 99.3167 212.265 100.85V115.11V169.62C212.265 170.54 211.805 171 210.885 171H195.475C194.555 171 194.095 170.54 194.095 169.62V11.38C194.095 10.46 194.555 9.99999 195.475 9.99999H210.885ZM263.451 9.99999H278.861C279.781 9.99999 280.241 10.46 280.241 11.38V169.62C280.241 170.54 279.781 171 278.861 171H263.451C262.531 171 262.071 170.463 262.071 169.39C262.071 167.857 262.071 165.25 262.071 161.57C262.224 157.737 262.377 153.443 262.531 148.69C262.684 143.783 262.837 138.723 262.991 133.51C263.144 128.143 263.221 123.083 263.221 118.33C263.374 113.577 263.451 109.437 263.451 105.91C263.604 102.23 263.681 99.7 263.681 98.32C263.681 96.94 263.374 96.25 262.761 96.25C262.147 96.25 261.764 96.94 261.611 98.32C261.457 99.5467 261.227 102 260.921 105.68C260.614 109.207 260.231 113.347 259.771 118.1C259.464 122.853 259.081 127.913 258.621 133.28C258.161 138.647 257.701 143.783 257.241 148.69C256.781 153.597 256.397 157.967 256.091 161.8C255.784 165.48 255.554 168.087 255.401 169.62C255.094 170.54 254.557 171 253.791 171H238.381C237.307 171 236.771 170.54 236.771 169.62V11.38C236.771 10.46 237.307 9.99999 238.381 9.99999H253.561C254.634 9.99999 255.094 10.6133 254.941 11.84C254.941 13.5267 254.864 16.21 254.711 19.89C254.557 23.4167 254.404 27.5567 254.251 32.31C254.097 37.0633 253.867 42.0467 253.561 47.26C253.407 52.4733 253.254 57.4567 253.101 62.21C252.947 66.9633 252.794 71.2567 252.641 75.09C252.641 78.77 252.641 81.4533 252.641 83.14C252.641 83.4467 252.641 83.9067 252.641 84.52C252.794 84.98 253.101 85.2867 253.561 85.44C254.021 85.44 254.327 85.1333 254.481 84.52C254.634 83.9067 254.787 83.4467 254.941 83.14C255.094 81.76 255.324 79.3067 255.631 75.78C255.937 72.1 256.321 67.8833 256.781 63.13C257.241 58.2233 257.701 53.0867 258.161 47.72C258.774 42.3533 259.311 37.2167 259.771 32.31C260.231 27.4033 260.614 23.11 260.921 19.43C261.381 15.5967 261.687 12.9133 261.841 11.38C261.841 10.46 262.377 9.99999 263.451 9.99999Z" fill="#FCFCFC"/>
</svg>
