<svg width="590" height="200" viewBox="0 0 590 200" fill="none" xmlns="http://www.w3.org/2000/svg">
<path d="M31.28 98.55C30.36 98.55 29.9 99.3167 29.9 100.85C29.9 102.383 29.8233 104.99 29.67 108.67C29.5167 112.197 29.3633 116.26 29.21 120.86C29.21 125.307 29.0567 130.137 28.75 135.35C28.5967 140.41 28.4433 145.24 28.29 149.84C28.29 154.287 28.2133 158.35 28.06 162.03C27.9067 165.557 27.83 168.087 27.83 169.62C27.83 170.54 27.2933 171 26.22 171H5.98C5.21333 171 4.67667 170.54 4.37 169.62L0.92 11.61C0.92 10.5367 1.38 9.99999 2.3 9.99999H17.71C18.63 9.99999 19.09 10.46 19.09 11.38V88.66C19.09 89.2733 19.2433 89.7333 19.55 90.04C19.8567 90.3467 20.1633 90.5 20.47 90.5C21.39 90.5 21.85 89.8867 21.85 88.66C21.85 86.9733 21.85 84.1367 21.85 80.15C22.0033 76.1633 22.08 71.64 22.08 66.58C22.2333 61.3667 22.31 55.9233 22.31 50.25C22.4633 44.4233 22.54 38.9033 22.54 33.69C22.6933 28.4767 22.77 23.8767 22.77 19.89C22.9233 15.9033 23 13.0667 23 11.38C23 10.46 23.5367 9.99999 24.61 9.99999H38.18C39.1 9.99999 39.56 10.46 39.56 11.38C39.56 13.0667 39.56 15.9033 39.56 19.89C39.7133 23.8767 39.79 28.4767 39.79 33.69C39.9433 38.9033 40.02 44.4233 40.02 50.25C40.1733 55.9233 40.25 61.3667 40.25 66.58C40.4033 71.64 40.48 76.1633 40.48 80.15C40.6333 84.1367 40.71 86.9733 40.71 88.66C40.71 89.8867 41.17 90.5 42.09 90.5C43.01 90.5 43.47 89.8867 43.47 88.66V11.38C43.47 10.46 44.0067 9.99999 45.08 9.99999H60.26C60.5667 9.99999 60.8733 10.1533 61.18 10.46C61.4867 10.6133 61.64 10.9967 61.64 11.61L58.88 169.62C58.88 170.54 58.42 171 57.5 171H36.34C35.42 171 34.96 170.54 34.96 169.62C34.96 168.087 34.8833 165.557 34.73 162.03C34.5767 158.35 34.4233 154.287 34.27 149.84C34.1167 145.24 33.9633 140.41 33.81 135.35C33.6567 130.137 33.5033 125.307 33.35 120.86C33.1967 116.26 33.0433 112.197 32.89 108.67C32.7367 104.99 32.66 102.383 32.66 100.85C32.66 99.3167 32.2 98.55 31.28 98.55ZM64.2706 11.38C64.2706 10.46 64.7306 9.99999 65.6506 9.99999H86.8106C87.7306 9.99999 88.1906 10.46 88.1906 11.38V24.49C88.1906 25.41 87.7306 25.87 86.8106 25.87H83.3606C82.7473 25.87 82.4406 26.1767 82.4406 26.79V81.76C82.4406 82.22 82.7473 82.45 83.3606 82.45H86.8106C87.7306 82.45 88.1906 82.9867 88.1906 84.06V96.94C88.1906 98.0133 87.7306 98.55 86.8106 98.55H83.3606C82.7473 98.55 82.4406 98.78 82.4406 99.24V154.21C82.4406 154.823 82.7473 155.13 83.3606 155.13H86.8106C87.7306 155.13 88.1906 155.59 88.1906 156.51V169.62C88.1906 170.54 87.7306 171 86.8106 171H65.6506C64.7306 171 64.2706 170.54 64.2706 169.62V11.38ZM92.6145 171C91.3879 171 90.7745 170.463 90.7745 169.39V11.84C90.7745 11.2267 90.9279 10.7667 91.2345 10.46C91.5412 10.1533 92.0012 9.99999 92.6145 9.99999H121.825C124.278 9.99999 126.348 10.8433 128.035 12.53C129.721 14.2167 130.565 16.2867 130.565 18.74V79.46C130.565 82.68 130.181 85.0567 129.415 86.59C128.801 88.1233 128.111 89.1967 127.345 89.81C126.731 90.4233 126.731 90.8833 127.345 91.19C129.185 92.2633 130.181 93.95 130.335 96.25C130.488 98.55 130.565 100.16 130.565 101.08V162.26C130.565 164.713 129.721 166.783 128.035 168.47C126.348 170.157 124.278 171 121.825 171H92.6145ZM110.785 98.55C109.558 98.55 108.945 99.3167 108.945 100.85V152.6C108.945 154.287 109.558 155.13 110.785 155.13C111.858 155.13 112.395 154.287 112.395 152.6V100.85C112.395 99.3167 111.858 98.55 110.785 98.55ZM110.785 25.87C109.558 25.87 108.945 26.6367 108.945 28.17V80.15C108.945 81.6833 109.558 82.45 110.785 82.45C111.858 82.45 112.395 81.6833 112.395 80.15V28.17C112.395 26.6367 111.858 25.87 110.785 25.87ZM144.95 11.38C144.95 10.46 145.41 9.99999 146.33 9.99999H161.74C162.814 9.99999 163.35 10.5367 163.35 11.61C163.197 14.2167 162.737 19.66 161.97 27.94C161.357 36.0667 160.667 45.5733 159.9 56.46C159.134 67.3467 158.29 78.9233 157.37 91.19C156.45 103.303 155.53 114.803 154.61 125.69C153.844 136.423 153.154 145.853 152.54 153.98C151.927 161.953 151.544 167.167 151.39 169.62C151.39 170.54 150.93 171 150.01 171H134.6C133.68 171 133.22 170.463 133.22 169.39C133.374 166.783 133.757 161.417 134.37 153.29C134.984 145.01 135.674 135.427 136.44 124.54C137.36 113.653 138.204 102.153 138.97 90.04C139.89 77.7733 140.734 66.2733 141.5 55.54C142.42 44.6533 143.187 35.2233 143.8 27.25C144.414 19.1233 144.797 13.8333 144.95 11.38ZM187.189 11.38C187.189 10.46 187.649 9.99999 188.569 9.99999H203.979C204.899 9.99999 205.359 10.46 205.359 11.38V162.26C205.359 164.713 204.516 166.783 202.829 168.47C201.143 170.157 199.073 171 196.619 171H174.309C171.856 171 169.786 170.157 168.099 168.47C166.413 166.783 165.569 164.713 165.569 162.26V11.38C165.569 10.46 166.029 9.99999 166.949 9.99999H182.359C183.279 9.99999 183.739 10.46 183.739 11.38V152.37C183.739 153.597 183.969 154.363 184.429 154.67C184.889 154.977 185.273 155.13 185.579 155.13C185.733 155.13 186.039 154.977 186.499 154.67C186.959 154.363 187.189 153.597 187.189 152.37V11.38ZM208.245 169.62V11.38C208.245 10.46 208.705 9.99999 209.625 9.99999H225.035C225.955 9.99999 226.415 10.46 226.415 11.38V169.62C226.415 170.54 225.955 171 225.035 171H209.625C208.705 171 208.245 170.54 208.245 169.62Z" fill="#F9A7B1"/>
</svg>
