<svg width="334" height="161" viewBox="0 0 334 161" fill="none" xmlns="http://www.w3.org/2000/svg">
<path d="M17.17 -1.09673e-05C18.09 -1.09673e-05 18.55 0.459992 18.55 1.38V70.15C18.55 71.6833 19.1633 72.45 20.39 72.45C21.4633 72.45 22 71.6833 22 70.15V1.38C22 0.459992 22.46 -1.09673e-05 23.38 -1.09673e-05H38.79C39.71 -1.09673e-05 40.17 0.459992 40.17 1.38V70.15C40.17 71.6833 40.0167 73.4467 39.71 75.44C39.4033 77.28 38.4833 78.7367 36.95 79.81C36.6433 79.9633 36.49 80.1933 36.49 80.5C36.49 80.8067 36.6433 81.0367 36.95 81.19C38.79 82.2633 39.7867 84.0267 39.94 86.48C40.0933 88.78 40.17 90.3133 40.17 91.08V159.62C40.17 160.54 39.71 161 38.79 161H23.38C22.46 161 22 160.54 22 159.62V90.85C22 89.3167 21.4633 88.55 20.39 88.55C19.1633 88.55 18.55 89.3167 18.55 90.85V105.11V159.62C18.55 160.54 18.09 161 17.17 161H1.76C0.84 161 0.38 160.54 0.38 159.62V1.38C0.38 0.459992 0.84 -1.09673e-05 1.76 -1.09673e-05H17.17ZM51.7958 161C49.3424 161 47.2724 160.157 45.5858 158.47C43.8991 156.783 43.0558 154.713 43.0558 152.26V8.73999C43.0558 5.97999 43.8991 3.83333 45.5858 2.29999C47.2724 0.766655 49.3424 -1.09673e-05 51.7958 -1.09673e-05H74.1058C76.5591 -1.09673e-05 78.6291 0.843325 80.3158 2.53C82.0024 4.21666 82.8458 6.28666 82.8458 8.73999V152.26C82.8458 154.713 82.0024 156.783 80.3158 158.47C78.6291 160.157 76.5591 161 74.1058 161H51.7958ZM64.6758 18.17C64.6758 16.6367 64.1391 15.87 63.0658 15.87C61.8391 15.87 61.2258 16.6367 61.2258 18.17V142.83C61.2258 144.363 61.8391 145.13 63.0658 145.13C64.1391 145.13 64.6758 144.363 64.6758 142.83V18.17ZM103.677 70.15C103.677 71.6833 104.29 72.45 105.517 72.45C106.59 72.45 107.127 71.6833 107.127 70.15V1.38C107.127 0.459992 107.587 -1.09673e-05 108.507 -1.09673e-05H123.917C124.837 -1.09673e-05 125.297 0.459992 125.297 1.38V159.62C125.297 160.54 124.837 161 123.917 161H108.507C107.587 161 107.127 160.54 107.127 159.62V90.85C107.127 89.3167 106.59 88.55 105.517 88.55C104.29 88.55 103.677 89.3167 103.677 90.85V159.62C103.677 160.54 103.217 161 102.297 161H86.887C85.967 161 85.507 160.54 85.507 159.62V1.38C85.507 0.459992 85.967 -1.09673e-05 86.887 -1.09673e-05H102.297C103.217 -1.09673e-05 103.677 0.459992 103.677 1.38V70.15ZM133.013 159.62V16.79C133.013 16.33 132.706 16.1 132.093 16.1H128.643C127.723 16.1 127.263 15.5633 127.263 14.49V1.61C127.263 0.536658 127.723 -1.09673e-05 128.643 -1.09673e-05H155.323C156.396 -1.09673e-05 156.933 0.536658 156.933 1.61V14.72C156.933 15.64 156.473 16.1 155.553 16.1H151.873C151.413 16.1 151.183 16.33 151.183 16.79V159.62C151.183 160.54 150.723 161 149.803 161H134.393C133.473 161 133.013 160.54 133.013 159.62ZM176.028 88.55C175.721 88.55 175.338 88.7033 174.878 89.01C174.571 89.1633 174.418 89.7767 174.418 90.85V159.39C174.418 160.463 173.881 161 172.808 161H157.628C156.708 161 156.248 160.617 156.248 159.85C156.248 157.857 156.325 154.33 156.478 149.27C156.631 144.057 156.785 137.923 156.938 130.87C157.091 123.663 157.245 115.767 157.398 107.18C157.705 98.44 157.935 89.6233 158.088 80.73C158.241 71.8367 158.395 63.0967 158.548 54.51C158.855 45.77 159.008 37.8733 159.008 30.82C159.161 23.6133 159.315 17.48 159.468 12.42C159.621 7.20666 159.698 3.68 159.698 1.83999C159.851 0.613324 160.388 -1.09673e-05 161.308 -1.09673e-05H191.668C192.741 -1.09673e-05 193.278 0.459992 193.278 1.38C193.278 3.21999 193.278 6.74666 193.278 11.96C193.431 17.02 193.585 23.1533 193.738 30.36C193.891 37.5667 194.045 45.4633 194.198 54.05C194.351 62.6367 194.505 71.4533 194.658 80.5C194.811 89.3933 194.965 98.1333 195.118 106.72C195.271 115.307 195.425 123.203 195.578 130.41C195.731 137.617 195.808 143.827 195.808 149.04C195.961 154.1 196.038 157.55 196.038 159.39C196.038 160.463 195.501 161 194.428 161H179.478C178.405 161 177.868 160.463 177.868 159.39V90.85C177.868 89.93 177.638 89.3167 177.178 89.01C176.718 88.7033 176.335 88.55 176.028 88.55ZM176.028 72.45C177.255 72.45 177.868 71.76 177.868 70.38V18.17C177.868 16.6367 177.255 15.87 176.028 15.87C174.955 15.87 174.418 16.6367 174.418 18.17V70.38C174.418 71.76 174.955 72.45 176.028 72.45ZM215.051 -1.09673e-05C215.971 -1.09673e-05 216.431 0.459992 216.431 1.38V70.15C216.431 71.6833 217.044 72.45 218.271 72.45C219.344 72.45 219.881 71.6833 219.881 70.15V1.38C219.881 0.459992 220.341 -1.09673e-05 221.261 -1.09673e-05H236.671C237.591 -1.09673e-05 238.051 0.459992 238.051 1.38V70.15C238.051 71.6833 237.898 73.4467 237.591 75.44C237.284 77.28 236.364 78.7367 234.831 79.81C234.524 79.9633 234.371 80.1933 234.371 80.5C234.371 80.8067 234.524 81.0367 234.831 81.19C236.671 82.2633 237.668 84.0267 237.821 86.48C237.974 88.78 238.051 90.3133 238.051 91.08V159.62C238.051 160.54 237.591 161 236.671 161H221.261C220.341 161 219.881 160.54 219.881 159.62V90.85C219.881 89.3167 219.344 88.55 218.271 88.55C217.044 88.55 216.431 89.3167 216.431 90.85V105.11V159.62C216.431 160.54 215.971 161 215.051 161H199.641C198.721 161 198.261 160.54 198.261 159.62V1.38C198.261 0.459992 198.721 -1.09673e-05 199.641 -1.09673e-05H215.051ZM245.767 159.62V16.79C245.767 16.33 245.46 16.1 244.847 16.1H241.397C240.477 16.1 240.017 15.5633 240.017 14.49V1.61C240.017 0.536658 240.477 -1.09673e-05 241.397 -1.09673e-05H268.077C269.15 -1.09673e-05 269.687 0.536658 269.687 1.61V14.72C269.687 15.64 269.227 16.1 268.307 16.1H264.627C264.167 16.1 263.937 16.33 263.937 16.79V159.62C263.937 160.54 263.477 161 262.557 161H247.147C246.227 161 245.767 160.54 245.767 159.62ZM289.878 1.38V51.06C289.878 51.52 290.185 51.75 290.798 51.75H303.218C305.518 51.75 307.435 52.5933 308.968 54.28C310.655 55.9667 311.498 57.96 311.498 60.26V152.26C311.498 154.713 310.655 156.783 308.968 158.47C307.281 160.157 305.211 161 302.758 161H273.088C272.168 161 271.708 160.54 271.708 159.62V1.38C271.708 0.459992 272.168 -1.09673e-05 273.088 -1.09673e-05H288.498C289.418 -1.09673e-05 289.878 0.459992 289.878 1.38ZM291.718 145.13C292.791 145.13 293.328 144.363 293.328 142.83V70.15C293.328 69.3833 293.098 68.8467 292.638 68.54C292.331 68.08 292.025 67.85 291.718 67.85C290.491 67.85 289.878 68.6167 289.878 70.15V142.83C289.878 144.363 290.491 145.13 291.718 145.13ZM315.408 159.62V1.38C315.408 0.459992 315.868 -1.09673e-05 316.788 -1.09673e-05H332.198C333.118 -1.09673e-05 333.578 0.459992 333.578 1.38V159.62C333.578 160.54 333.118 161 332.198 161H316.788C315.868 161 315.408 160.54 315.408 159.62Z" fill="#FCFCFC"/>
</svg>
