<svg width="272" height="161" viewBox="0 0 272 161" fill="none" xmlns="http://www.w3.org/2000/svg">
<path d="M9.12 161C6.66667 161 4.59667 160.157 2.91 158.47C1.22333 156.783 0.38 154.713 0.38 152.26V8.73999C0.38 5.97999 1.22333 3.83333 2.91 2.29999C4.59667 0.766655 6.66667 -1.09673e-05 9.12 -1.09673e-05H31.43C33.8833 -1.09673e-05 35.9533 0.843325 37.64 2.53C39.3267 4.21666 40.17 6.28666 40.17 8.73999V152.26C40.17 154.713 39.3267 156.783 37.64 158.47C35.9533 160.157 33.8833 161 31.43 161H9.12ZM22 18.17C22 16.6367 21.4633 15.87 20.39 15.87C19.1633 15.87 18.55 16.6367 18.55 18.17V142.83C18.55 144.363 19.1633 145.13 20.39 145.13C21.4633 145.13 22 144.363 22 142.83V18.17ZM62.8412 145.13C63.9145 145.13 64.4512 144.363 64.4512 142.83V86.25C64.4512 84.7167 63.9145 83.95 62.8412 83.95C61.6145 83.95 61.0012 84.7167 61.0012 86.25V142.83C61.0012 144.363 61.6145 145.13 62.8412 145.13ZM61.0012 67.16C61.0012 67.62 61.3078 67.85 61.9212 67.85H74.3412C76.6412 67.85 78.5578 68.6933 80.0912 70.38C81.7778 72.0667 82.6212 74.06 82.6212 76.36V152.26C82.6212 154.713 81.7778 156.783 80.0912 158.47C78.4045 160.157 76.3345 161 73.8812 161H44.2112C43.2912 161 42.8312 160.54 42.8312 159.62V1.38C42.8312 0.459992 43.2912 -1.09673e-05 44.2112 -1.09673e-05H81.2412C82.1612 -1.09673e-05 82.6212 0.459992 82.6212 1.38V63.02C82.6212 64.0933 82.1612 64.63 81.2412 64.63H65.8312C64.9112 64.63 64.4512 64.0933 64.4512 63.02V16.79C64.4512 16.1767 64.1445 15.87 63.5312 15.87H61.9212C61.3078 15.87 61.0012 16.1767 61.0012 16.79V67.16ZM94.247 161C91.7936 161 89.7236 160.157 88.037 158.47C86.3503 156.783 85.507 154.713 85.507 152.26V8.73999C85.507 5.97999 86.3503 3.83333 88.037 2.29999C89.7236 0.766655 91.7936 -1.09673e-05 94.247 -1.09673e-05H116.557C119.01 -1.09673e-05 121.08 0.843325 122.767 2.53C124.454 4.21666 125.297 6.28666 125.297 8.73999V152.26C125.297 154.713 124.454 156.783 122.767 158.47C121.08 160.157 119.01 161 116.557 161H94.247ZM107.127 18.17C107.127 16.6367 106.59 15.87 105.517 15.87C104.29 15.87 103.677 16.6367 103.677 18.17V142.83C103.677 144.363 104.29 145.13 105.517 145.13C106.59 145.13 107.127 144.363 107.127 142.83V18.17ZM172.458 72.45C173.378 72.45 173.838 71.76 173.838 70.38C173.991 68.8467 174.068 66.3167 174.068 62.79C174.221 59.11 174.374 54.97 174.528 50.37C174.681 45.77 174.834 40.94 174.988 35.88C175.141 30.82 175.294 25.99 175.448 21.39C175.601 16.79 175.678 12.7267 175.678 9.19999C175.831 5.52 175.984 2.91333 176.138 1.38C176.138 0.459992 176.598 -1.09673e-05 177.518 -1.09673e-05H198.678C199.598 -1.09673e-05 200.058 0.459992 200.058 1.38L202.818 159.39C202.818 160.463 202.281 161 201.208 161H186.258C185.184 161 184.648 160.54 184.648 159.62V82.57C184.648 81.19 184.188 80.5 183.268 80.5C182.348 80.5 181.888 81.19 181.888 82.57C181.888 84.1033 181.811 86.8633 181.658 90.85C181.658 94.8367 181.581 99.4367 181.428 104.65C181.428 109.71 181.351 115.153 181.198 120.98C181.198 126.653 181.121 132.097 180.968 137.31C180.968 142.523 180.891 147.123 180.738 151.11C180.738 155.097 180.738 157.933 180.738 159.62C180.738 160.54 180.278 161 179.358 161H165.788C164.714 161 164.178 160.54 164.178 159.62C164.178 157.933 164.101 155.097 163.948 151.11C163.948 147.123 163.871 142.523 163.718 137.31C163.718 132.097 163.641 126.653 163.488 120.98C163.488 115.153 163.411 109.71 163.258 104.65C163.258 99.4367 163.181 94.8367 163.028 90.85C163.028 86.8633 163.028 84.1033 163.028 82.57C163.028 81.19 162.568 80.5 161.648 80.5C160.728 80.5 160.268 81.19 160.268 82.57V159.62C160.268 160.54 159.808 161 158.888 161H143.478C142.558 161 142.098 160.463 142.098 159.39L145.548 1.61C145.548 0.536658 146.084 -1.09673e-05 147.158 -1.09673e-05H167.398C168.471 -1.09673e-05 169.008 0.459992 169.008 1.38C169.008 2.91333 169.084 5.52 169.238 9.19999C169.391 12.7267 169.468 16.79 169.468 21.39C169.621 25.99 169.774 30.82 169.928 35.88C170.234 40.94 170.388 45.77 170.388 50.37C170.541 54.97 170.694 59.11 170.848 62.79C171.001 66.3167 171.078 68.8467 171.078 70.38C171.078 71.76 171.538 72.45 172.458 72.45ZM223.394 70.15C223.394 71.6833 224.007 72.45 225.234 72.45C226.307 72.45 226.844 71.6833 226.844 70.15V1.38C226.844 0.459992 227.304 -1.09673e-05 228.224 -1.09673e-05H243.634C244.554 -1.09673e-05 245.014 0.459992 245.014 1.38V159.62C245.014 160.54 244.554 161 243.634 161H228.224C227.304 161 226.844 160.54 226.844 159.62V90.85C226.844 89.3167 226.307 88.55 225.234 88.55C224.007 88.55 223.394 89.3167 223.394 90.85V159.62C223.394 160.54 222.934 161 222.014 161H206.604C205.684 161 205.224 160.54 205.224 159.62V1.38C205.224 0.459992 205.684 -1.09673e-05 206.604 -1.09673e-05H222.014C222.934 -1.09673e-05 223.394 0.459992 223.394 1.38V70.15ZM247.9 1.38C247.9 0.459992 248.36 -1.09673e-05 249.28 -1.09673e-05H270.44C271.36 -1.09673e-05 271.82 0.459992 271.82 1.38V14.49C271.82 15.41 271.36 15.87 270.44 15.87H266.99C266.376 15.87 266.07 16.1767 266.07 16.79V71.76C266.07 72.22 266.376 72.45 266.99 72.45H270.44C271.36 72.45 271.82 72.9867 271.82 74.06V86.94C271.82 88.0133 271.36 88.55 270.44 88.55H266.99C266.376 88.55 266.07 88.78 266.07 89.24V144.21C266.07 144.823 266.376 145.13 266.99 145.13H270.44C271.36 145.13 271.82 145.59 271.82 146.51V159.62C271.82 160.54 271.36 161 270.44 161H249.28C248.36 161 247.9 160.54 247.9 159.62V1.38Z" fill="#FCFCFC"/>
</svg>
